<svg xmlns="http://www.w3.org/2000/svg" viewBox="0 0 500 124" width="500" height="124">
  <defs>
    <filter id="glow-banner" x="-40%" y="-40%" width="180%" height="180%">
      <feGaussianBlur stdDeviation="1.3" result="b"/>
      <feMerge><feMergeNode in="b"/><feMergeNode in="SourceGraphic"/></feMerge>
    </filter>
  </defs>
  <g filter="url(#glow-banner)" stroke-linecap="square" stroke-linejoin="miter" fill="none"><line x1="20" y1="34" x2="20" y2="90" stroke="rgba(63,224,255,0.34)" stroke-width="1.4" /><line x1="20" y1="34" x2="26" y2="34" stroke="rgba(63,224,255,0.34)" stroke-width="1.4" /><line x1="20" y1="90" x2="26" y2="90" stroke="rgba(63,224,255,0.34)" stroke-width="1.4" /><path d="M36,30 L46,30 L52,36 L52,88 L46,94 L36,94 L30,88 L30,36 Z" fill="#3FE0FF" stroke="#3FE0FF" stroke-width="1" /><line x1="30" y1="48" x2="52" y2="48" stroke="#070B12" stroke-width="2" /><line x1="30" y1="62" x2="52" y2="62" stroke="#070B12" stroke-width="2" /><line x1="30" y1="76" x2="52" y2="76" stroke="#070B12" stroke-width="2" /><path d="M69,30 L465,30 L474,39 L474,85 L465,94 L69,94 L60,85 L60,39 Z" fill="rgba(63,224,255,0.15)" stroke="#3FE0FF" stroke-width="2" /><line x1="70" y1="50" x2="464" y2="50" stroke="rgba(63,224,255,0.34)" stroke-width="1" /><line x1="70" y1="50" x2="70" y2="44" stroke="rgba(63,224,255,0.34)" stroke-width="1" /><line x1="80" y1="50" x2="80" y2="47" stroke="rgba(63,224,255,0.34)" stroke-width="1" /><line x1="90" y1="50" x2="90" y2="47" stroke="rgba(63,224,255,0.34)" stroke-width="1" /><line x1="100" y1="50" x2="100" y2="47" stroke="rgba(63,224,255,0.34)" stroke-width="1" /><line x1="110" y1="50" x2="110" y2="44" stroke="rgba(63,224,255,0.34)" stroke-width="1" /><line x1="120" y1="50" x2="120" y2="47" stroke="rgba(63,224,255,0.34)" stroke-width="1" /><line x1="130" y1="50" x2="130" y2="47" stroke="rgba(63,224,255,0.34)" stroke-width="1" /><line x1="140" y1="50" x2="140" y2="47" stroke="rgba(63,224,255,0.34)" stroke-width="1" /><line x1="150" y1="50" x2="150" y2="44" stroke="rgba(63,224,255,0.34)" stroke-width="1" /><line x1="160" y1="50" x2="160" y2="47" stroke="rgba(63,224,255,0.34)" stroke-width="1" /><line x1="170" y1="50" x2="170" y2="47" stroke="rgba(63,224,255,0.34)" stroke-width="1" /><line x1="180" y1="50" x2="180" y2="47" stroke="rgba(63,224,255,0.34)" stroke-width="1" /><line x1="70" y1="86" x2="70" y2="93" stroke="rgba(63,224,255,0.15)" stroke-width="1" /><line x1="83.13333333333333" y1="86" x2="83.13333333333333" y2="89" stroke="rgba(63,224,255,0.15)" stroke-width="1" /><line x1="96.26666666666667" y1="86" x2="96.26666666666667" y2="89" stroke="rgba(63,224,255,0.15)" stroke-width="1" /><line x1="109.4" y1="86" x2="109.4" y2="89" stroke="rgba(63,224,255,0.15)" stroke-width="1" /><line x1="122.53333333333333" y1="86" x2="122.53333333333333" y2="89" stroke="rgba(63,224,255,0.15)" stroke-width="1" /><line x1="135.66666666666669" y1="86" x2="135.66666666666669" y2="93" stroke="rgba(63,224,255,0.15)" stroke-width="1" /><line x1="148.8" y1="86" x2="148.8" y2="89" stroke="rgba(63,224,255,0.15)" stroke-width="1" /><line x1="161.93333333333334" y1="86" x2="161.93333333333334" y2="89" stroke="rgba(63,224,255,0.15)" stroke-width="1" /><line x1="175.06666666666666" y1="86" x2="175.06666666666666" y2="89" stroke="rgba(63,224,255,0.15)" stroke-width="1" /><line x1="188.2" y1="86" x2="188.2" y2="89" stroke="rgba(63,224,255,0.15)" stroke-width="1" /><line x1="201.33333333333334" y1="86" x2="201.33333333333334" y2="93" stroke="rgba(63,224,255,0.15)" stroke-width="1" /><line x1="214.46666666666667" y1="86" x2="214.46666666666667" y2="89" stroke="rgba(63,224,255,0.15)" stroke-width="1" /><line x1="227.6" y1="86" x2="227.6" y2="89" stroke="rgba(63,224,255,0.15)" stroke-width="1" /><line x1="240.73333333333332" y1="86" x2="240.73333333333332" y2="89" stroke="rgba(63,224,255,0.15)" stroke-width="1" /><line x1="253.86666666666667" y1="86" x2="253.86666666666667" y2="89" stroke="rgba(63,224,255,0.15)" stroke-width="1" /><line x1="267" y1="86" x2="267" y2="93" stroke="rgba(63,224,255,0.15)" stroke-width="1" /><line x1="280.1333333333333" y1="86" x2="280.1333333333333" y2="89" stroke="rgba(63,224,255,0.15)" stroke-width="1" /><line x1="293.26666666666665" y1="86" x2="293.26666666666665" y2="89" stroke="rgba(63,224,255,0.15)" stroke-width="1" /><line x1="306.4" y1="86" x2="306.4" y2="89" stroke="rgba(63,224,255,0.15)" stroke-width="1" /><line x1="319.5333333333333" y1="86" x2="319.5333333333333" y2="89" stroke="rgba(63,224,255,0.15)" stroke-width="1" /><line x1="332.6666666666667" y1="86" x2="332.6666666666667" y2="93" stroke="rgba(63,224,255,0.15)" stroke-width="1" /><line x1="345.8" y1="86" x2="345.8" y2="89" stroke="rgba(63,224,255,0.15)" stroke-width="1" /><line x1="358.93333333333334" y1="86" x2="358.93333333333334" y2="89" stroke="rgba(63,224,255,0.15)" stroke-width="1" /><line x1="372.06666666666666" y1="86" x2="372.06666666666666" y2="89" stroke="rgba(63,224,255,0.15)" stroke-width="1" /><line x1="385.2" y1="86" x2="385.2" y2="89" stroke="rgba(63,224,255,0.15)" stroke-width="1" /><line x1="398.3333333333333" y1="86" x2="398.3333333333333" y2="93" stroke="rgba(63,224,255,0.15)" stroke-width="1" /><line x1="411.46666666666664" y1="86" x2="411.46666666666664" y2="89" stroke="rgba(63,224,255,0.15)" stroke-width="1" /><line x1="424.6" y1="86" x2="424.6" y2="89" stroke="rgba(63,224,255,0.15)" stroke-width="1" /><line x1="437.73333333333335" y1="86" x2="437.73333333333335" y2="89" stroke="rgba(63,224,255,0.15)" stroke-width="1" /><line x1="450.8666666666667" y1="86" x2="450.8666666666667" y2="89" stroke="rgba(63,224,255,0.15)" stroke-width="1" /><line x1="464" y1="86" x2="464" y2="93" stroke="rgba(63,224,255,0.15)" stroke-width="1" /><line x1="465" y1="30" x2="448" y2="30" stroke="#3FE0FF" stroke-width="2.2" /><line x1="474" y1="39" x2="474" y2="56" stroke="#3FE0FF" stroke-width="2.2" /><line x1="465" y1="94" x2="448" y2="94" stroke="#3FE0FF" stroke-width="2.2" /><line x1="474" y1="85" x2="474" y2="68" stroke="#3FE0FF" stroke-width="2.2" /></g>
</svg>