<svg xmlns="http://www.w3.org/2000/svg" viewBox="0 0 560 100" width="560" height="100">
  <defs>
    <filter id="glow-cartridge" x="-40%" y="-40%" width="180%" height="180%">
      <feGaussianBlur stdDeviation="1.3" result="b"/>
      <feMerge><feMergeNode in="b"/><feMergeNode in="SourceGraphic"/></feMerge>
    </filter>
  </defs>
  <g filter="url(#glow-cartridge)" stroke-linecap="square" stroke-linejoin="miter" fill="none"><polygon points="50,74 62,30 96,30 84,74" fill="#3FE0FF" stroke="#3FE0FF" stroke-width="1"/><line x1="65" y1="34" x2="93" y2="34" stroke="#070B12" stroke-width="1.5" /><line x1="53" y1="70" x2="81" y2="70" stroke="#070B12" stroke-width="1.5" /><polygon points="106,74 118,30 152,30 140,74" fill="#3FE0FF" stroke="#3FE0FF" stroke-width="1"/><line x1="121" y1="34" x2="149" y2="34" stroke="#070B12" stroke-width="1.5" /><line x1="109" y1="70" x2="137" y2="70" stroke="#070B12" stroke-width="1.5" /><polygon points="162,74 174,30 208,30 196,74" fill="#3FE0FF" stroke="#3FE0FF" stroke-width="1"/><line x1="177" y1="34" x2="205" y2="34" stroke="#070B12" stroke-width="1.5" /><line x1="165" y1="70" x2="193" y2="70" stroke="#070B12" stroke-width="1.5" /><polygon points="218,74 230,30 264,30 252,74" fill="#3FE0FF" stroke="#3FE0FF" stroke-width="1"/><line x1="233" y1="34" x2="261" y2="34" stroke="#070B12" stroke-width="1.5" /><line x1="221" y1="70" x2="249" y2="70" stroke="#070B12" stroke-width="1.5" /><polygon points="274,74 286,30 320,30 308,74" fill="#3FE0FF" stroke="#3FE0FF" stroke-width="1"/><line x1="289" y1="34" x2="317" y2="34" stroke="#070B12" stroke-width="1.5" /><line x1="277" y1="70" x2="305" y2="70" stroke="#070B12" stroke-width="1.5" /><polygon points="330,74 342,30 376,30 364,74" fill="rgba(63,224,255,0.15)" stroke="rgba(63,224,255,0.34)" stroke-width="1.5"/><line x1="342" y1="34" x2="334" y2="70" stroke="rgba(63,224,255,0.15)" stroke-width="1" /><polygon points="386,74 398,30 432,30 420,74" fill="rgba(63,224,255,0.15)" stroke="rgba(63,224,255,0.34)" stroke-width="1.5"/><line x1="398" y1="34" x2="390" y2="70" stroke="rgba(63,224,255,0.15)" stroke-width="1" /><polygon points="442,74 454,30 488,30 476,74" fill="rgba(63,224,255,0.15)" stroke="rgba(63,224,255,0.34)" stroke-width="1.5"/><line x1="454" y1="34" x2="446" y2="70" stroke="rgba(63,224,255,0.15)" stroke-width="1" /><line x1="34" y1="22" x2="34" y2="40" stroke="#3FE0FF" stroke-width="2.4" /><line x1="34" y1="22" x2="52" y2="22" stroke="#3FE0FF" stroke-width="2.4" /><line x1="40" y1="26" x2="40" y2="34" stroke="rgba(63,224,255,0.34)" stroke-width="1" /><line x1="40" y1="26" x2="48" y2="26" stroke="rgba(63,224,255,0.34)" stroke-width="1" /><line x1="492" y1="82" x2="492" y2="64" stroke="#3FE0FF" stroke-width="2.4" /><line x1="492" y1="82" x2="474" y2="82" stroke="#3FE0FF" stroke-width="2.4" /><line x1="50" y1="84" x2="50" y2="91" stroke="rgba(63,224,255,0.34)" stroke-width="1" /><line x1="67.75" y1="84" x2="67.75" y2="87" stroke="rgba(63,224,255,0.34)" stroke-width="1" /><line x1="85.5" y1="84" x2="85.5" y2="87" stroke="rgba(63,224,255,0.34)" stroke-width="1" /><line x1="103.25" y1="84" x2="103.25" y2="87" stroke="rgba(63,224,255,0.34)" stroke-width="1" /><line x1="121" y1="84" x2="121" y2="91" stroke="rgba(63,224,255,0.34)" stroke-width="1" /><line x1="138.75" y1="84" x2="138.75" y2="87" stroke="rgba(63,224,255,0.34)" stroke-width="1" /><line x1="156.5" y1="84" x2="156.5" y2="87" stroke="rgba(63,224,255,0.34)" stroke-width="1" /><line x1="174.25" y1="84" x2="174.25" y2="87" stroke="rgba(63,224,255,0.34)" stroke-width="1" /><line x1="192" y1="84" x2="192" y2="91" stroke="rgba(63,224,255,0.34)" stroke-width="1" /><line x1="209.75" y1="84" x2="209.75" y2="87" stroke="rgba(63,224,255,0.34)" stroke-width="1" /><line x1="227.5" y1="84" x2="227.5" y2="87" stroke="rgba(63,224,255,0.34)" stroke-width="1" /><line x1="245.25" y1="84" x2="245.25" y2="87" stroke="rgba(63,224,255,0.34)" stroke-width="1" /><line x1="263" y1="84" x2="263" y2="91" stroke="rgba(63,224,255,0.34)" stroke-width="1" /><line x1="280.75" y1="84" x2="280.75" y2="87" stroke="rgba(63,224,255,0.34)" stroke-width="1" /><line x1="298.5" y1="84" x2="298.5" y2="87" stroke="rgba(63,224,255,0.34)" stroke-width="1" /><line x1="316.25" y1="84" x2="316.25" y2="87" stroke="rgba(63,224,255,0.34)" stroke-width="1" /><line x1="334" y1="84" x2="334" y2="91" stroke="rgba(63,224,255,0.34)" stroke-width="1" /><line x1="351.75" y1="84" x2="351.75" y2="87" stroke="rgba(63,224,255,0.34)" stroke-width="1" /><line x1="369.5" y1="84" x2="369.5" y2="87" stroke="rgba(63,224,255,0.34)" stroke-width="1" /><line x1="387.25" y1="84" x2="387.25" y2="87" stroke="rgba(63,224,255,0.34)" stroke-width="1" /><line x1="405" y1="84" x2="405" y2="91" stroke="rgba(63,224,255,0.34)" stroke-width="1" /><line x1="422.75" y1="84" x2="422.75" y2="87" stroke="rgba(63,224,255,0.34)" stroke-width="1" /><line x1="440.5" y1="84" x2="440.5" y2="87" stroke="rgba(63,224,255,0.34)" stroke-width="1" /><line x1="458.25" y1="84" x2="458.25" y2="87" stroke="rgba(63,224,255,0.34)" stroke-width="1" /><line x1="476" y1="84" x2="476" y2="91" stroke="rgba(63,224,255,0.34)" stroke-width="1" /></g>
</svg>