<svg xmlns="http://www.w3.org/2000/svg" viewBox="0 0 600 110" width="600" height="110">
  <defs>
    <filter id="glow-core-bar" x="-40%" y="-40%" width="180%" height="180%">
      <feGaussianBlur stdDeviation="1.3" result="b"/>
      <feMerge><feMergeNode in="b"/><feMergeNode in="SourceGraphic"/></feMerge>
    </filter>
  </defs>
  <g filter="url(#glow-core-bar)" stroke-linecap="square" stroke-linejoin="miter" fill="none"><line x1="20" y1="40" x2="20" y2="76" stroke="#3FE0FF" stroke-width="2" /><line x1="20" y1="40" x2="28" y2="40" stroke="#3FE0FF" stroke-width="2" /><line x1="20" y1="76" x2="28" y2="76" stroke="#3FE0FF" stroke-width="2" /><line x1="28" y1="46" x2="28" y2="70" stroke="rgba(63,224,255,0.34)" stroke-width="1" /><path d="M46,40 L54,40 L60,46 L60,70 L54,76 L46,76 L40,70 L40,46 Z" fill="#3FE0FF" stroke="#3FE0FF" stroke-width="1" /><line x1="40" y1="52" x2="60" y2="52" stroke="#070B12" stroke-width="2" /><line x1="40" y1="64" x2="60" y2="64" stroke="#070B12" stroke-width="2" /><path d="M79,36 L547,36 L556,45 L556,71 L547,80 L79,80 L70,71 L70,45 Z" fill="none" stroke="#3FE0FF" stroke-width="2" /><path d="M87,46 L539,46 L544,51 L544,65 L539,70 L87,70 L82,65 L82,51 Z" fill="none" stroke="rgba(63,224,255,0.34)" stroke-width="1" /><polygon points="86,48 396.16,48 388.16,68 86,68" fill="#3FE0FF" stroke="none" stroke-width="2"/><line x1="103" y1="48" x2="103" y2="68" stroke="#070B12" stroke-width="2" /><line x1="124" y1="48" x2="124" y2="68" stroke="#070B12" stroke-width="2" /><line x1="145" y1="48" x2="145" y2="68" stroke="#070B12" stroke-width="2" /><line x1="166" y1="48" x2="166" y2="68" stroke="#070B12" stroke-width="2" /><line x1="187" y1="48" x2="187" y2="68" stroke="#070B12" stroke-width="2" /><line x1="208" y1="48" x2="208" y2="68" stroke="#070B12" stroke-width="2" /><line x1="229" y1="48" x2="229" y2="68" stroke="#070B12" stroke-width="2" /><line x1="250" y1="48" x2="250" y2="68" stroke="#070B12" stroke-width="2" /><line x1="271" y1="48" x2="271" y2="68" stroke="#070B12" stroke-width="2" /><line x1="292" y1="48" x2="292" y2="68" stroke="#070B12" stroke-width="2" /><line x1="313" y1="48" x2="313" y2="68" stroke="#070B12" stroke-width="2" /><line x1="334" y1="48" x2="334" y2="68" stroke="#070B12" stroke-width="2" /><line x1="355" y1="48" x2="355" y2="68" stroke="#070B12" stroke-width="2" /><line x1="376" y1="48" x2="376" y2="68" stroke="#070B12" stroke-width="2" /><line x1="397" y1="49" x2="397" y2="67" stroke="rgba(63,224,255,0.34)" stroke-width="1" /><line x1="418" y1="49" x2="418" y2="67" stroke="rgba(63,224,255,0.34)" stroke-width="1" /><line x1="439" y1="49" x2="439" y2="67" stroke="rgba(63,224,255,0.34)" stroke-width="1" /><line x1="460" y1="49" x2="460" y2="67" stroke="rgba(63,224,255,0.34)" stroke-width="1" /><line x1="481" y1="49" x2="481" y2="67" stroke="rgba(63,224,255,0.34)" stroke-width="1" /><line x1="502" y1="49" x2="502" y2="67" stroke="rgba(63,224,255,0.34)" stroke-width="1" /><line x1="523" y1="49" x2="523" y2="67" stroke="rgba(63,224,255,0.34)" stroke-width="1" /><line x1="82" y1="30" x2="82" y2="21" stroke="rgba(63,224,255,0.34)" stroke-width="1" /><line x1="92.04347826086956" y1="30" x2="92.04347826086956" y2="26" stroke="rgba(63,224,255,0.34)" stroke-width="1" /><line x1="102.08695652173913" y1="30" x2="102.08695652173913" y2="26" stroke="rgba(63,224,255,0.34)" stroke-width="1" /><line x1="112.13043478260869" y1="30" x2="112.13043478260869" y2="26" stroke="rgba(63,224,255,0.34)" stroke-width="1" /><line x1="122.17391304347825" y1="30" x2="122.17391304347825" y2="26" stroke="rgba(63,224,255,0.34)" stroke-width="1" /><line x1="132.2173913043478" y1="30" x2="132.2173913043478" y2="21" stroke="rgba(63,224,255,0.34)" stroke-width="1" /><line x1="142.26086956521738" y1="30" x2="142.26086956521738" y2="26" stroke="rgba(63,224,255,0.34)" stroke-width="1" /><line x1="152.30434782608694" y1="30" x2="152.30434782608694" y2="26" stroke="rgba(63,224,255,0.34)" stroke-width="1" /><line x1="162.3478260869565" y1="30" x2="162.3478260869565" y2="26" stroke="rgba(63,224,255,0.34)" stroke-width="1" /><line x1="172.3913043478261" y1="30" x2="172.3913043478261" y2="26" stroke="rgba(63,224,255,0.34)" stroke-width="1" /><line x1="182.43478260869566" y1="30" x2="182.43478260869566" y2="21" stroke="rgba(63,224,255,0.34)" stroke-width="1" /><line x1="192.47826086956522" y1="30" x2="192.47826086956522" y2="26" stroke="rgba(63,224,255,0.34)" stroke-width="1" /><line x1="202.52173913043478" y1="30" x2="202.52173913043478" y2="26" stroke="rgba(63,224,255,0.34)" stroke-width="1" /><line x1="212.56521739130434" y1="30" x2="212.56521739130434" y2="26" stroke="rgba(63,224,255,0.34)" stroke-width="1" /><line x1="222.6086956521739" y1="30" x2="222.6086956521739" y2="26" stroke="rgba(63,224,255,0.34)" stroke-width="1" /><line x1="232.65217391304347" y1="30" x2="232.65217391304347" y2="21" stroke="rgba(63,224,255,0.34)" stroke-width="1" /><line x1="242.69565217391303" y1="30" x2="242.69565217391303" y2="26" stroke="rgba(63,224,255,0.34)" stroke-width="1" /><line x1="252.7391304347826" y1="30" x2="252.7391304347826" y2="26" stroke="rgba(63,224,255,0.34)" stroke-width="1" /><line x1="262.7826086956522" y1="30" x2="262.7826086956522" y2="26" stroke="rgba(63,224,255,0.34)" stroke-width="1" /><line x1="272.82608695652175" y1="30" x2="272.82608695652175" y2="26" stroke="rgba(63,224,255,0.34)" stroke-width="1" /><line x1="282.8695652173913" y1="30" x2="282.8695652173913" y2="21" stroke="rgba(63,224,255,0.34)" stroke-width="1" /><line x1="292.9130434782609" y1="30" x2="292.9130434782609" y2="26" stroke="rgba(63,224,255,0.34)" stroke-width="1" /><line x1="302.95652173913044" y1="30" x2="302.95652173913044" y2="26" stroke="rgba(63,224,255,0.34)" stroke-width="1" /><line x1="313" y1="30" x2="313" y2="26" stroke="rgba(63,224,255,0.34)" stroke-width="1" /><line x1="323.04347826086956" y1="30" x2="323.04347826086956" y2="26" stroke="rgba(63,224,255,0.34)" stroke-width="1" /><line x1="333.0869565217391" y1="30" x2="333.0869565217391" y2="21" stroke="rgba(63,224,255,0.34)" stroke-width="1" /><line x1="343.1304347826087" y1="30" x2="343.1304347826087" y2="26" stroke="rgba(63,224,255,0.34)" stroke-width="1" /><line x1="353.17391304347825" y1="30" x2="353.17391304347825" y2="26" stroke="rgba(63,224,255,0.34)" stroke-width="1" /><line x1="363.2173913043478" y1="30" x2="363.2173913043478" y2="26" stroke="rgba(63,224,255,0.34)" stroke-width="1" /><line x1="373.2608695652174" y1="30" x2="373.2608695652174" y2="26" stroke="rgba(63,224,255,0.34)" stroke-width="1" /><line x1="383.30434782608694" y1="30" x2="383.30434782608694" y2="21" stroke="rgba(63,224,255,0.34)" stroke-width="1" /><line x1="393.3478260869565" y1="30" x2="393.3478260869565" y2="26" stroke="rgba(63,224,255,0.34)" stroke-width="1" /><line x1="403.39130434782606" y1="30" x2="403.39130434782606" y2="26" stroke="rgba(63,224,255,0.34)" stroke-width="1" /><line x1="413.4347826086956" y1="30" x2="413.4347826086956" y2="26" stroke="rgba(63,224,255,0.34)" stroke-width="1" /><line x1="423.4782608695652" y1="30" x2="423.4782608695652" y2="26" stroke="rgba(63,224,255,0.34)" stroke-width="1" /><line x1="433.5217391304348" y1="30" x2="433.5217391304348" y2="21" stroke="rgba(63,224,255,0.34)" stroke-width="1" /><line x1="443.5652173913044" y1="30" x2="443.5652173913044" y2="26" stroke="rgba(63,224,255,0.34)" stroke-width="1" /><line x1="453.60869565217394" y1="30" x2="453.60869565217394" y2="26" stroke="rgba(63,224,255,0.34)" stroke-width="1" /><line x1="463.6521739130435" y1="30" x2="463.6521739130435" y2="26" stroke="rgba(63,224,255,0.34)" stroke-width="1" /><line x1="473.69565217391306" y1="30" x2="473.69565217391306" y2="26" stroke="rgba(63,224,255,0.34)" stroke-width="1" /><line x1="483.7391304347826" y1="30" x2="483.7391304347826" y2="21" stroke="rgba(63,224,255,0.34)" stroke-width="1" /><line x1="493.7826086956522" y1="30" x2="493.7826086956522" y2="26" stroke="rgba(63,224,255,0.34)" stroke-width="1" /><line x1="503.82608695652175" y1="30" x2="503.82608695652175" y2="26" stroke="rgba(63,224,255,0.34)" stroke-width="1" /><line x1="513.8695652173913" y1="30" x2="513.8695652173913" y2="26" stroke="rgba(63,224,255,0.34)" stroke-width="1" /><line x1="523.9130434782609" y1="30" x2="523.9130434782609" y2="26" stroke="rgba(63,224,255,0.34)" stroke-width="1" /><line x1="533.9565217391305" y1="30" x2="533.9565217391305" y2="21" stroke="rgba(63,224,255,0.34)" stroke-width="1" /><line x1="544" y1="30" x2="544" y2="26" stroke="rgba(63,224,255,0.34)" stroke-width="1" /><line x1="82" y1="84" x2="82" y2="90" stroke="rgba(63,224,255,0.15)" stroke-width="1" /><line x1="102.08695652173913" y1="84" x2="102.08695652173913" y2="87" stroke="rgba(63,224,255,0.15)" stroke-width="1" /><line x1="122.17391304347825" y1="84" x2="122.17391304347825" y2="87" stroke="rgba(63,224,255,0.15)" stroke-width="1" /><line x1="142.26086956521738" y1="84" x2="142.26086956521738" y2="87" stroke="rgba(63,224,255,0.15)" stroke-width="1" /><line x1="162.3478260869565" y1="84" x2="162.3478260869565" y2="90" stroke="rgba(63,224,255,0.15)" stroke-width="1" /><line x1="182.43478260869566" y1="84" x2="182.43478260869566" y2="87" stroke="rgba(63,224,255,0.15)" stroke-width="1" /><line x1="202.52173913043478" y1="84" x2="202.52173913043478" y2="87" stroke="rgba(63,224,255,0.15)" stroke-width="1" /><line x1="222.6086956521739" y1="84" x2="222.6086956521739" y2="87" stroke="rgba(63,224,255,0.15)" stroke-width="1" /><line x1="242.69565217391303" y1="84" x2="242.69565217391303" y2="90" stroke="rgba(63,224,255,0.15)" stroke-width="1" /><line x1="262.7826086956522" y1="84" x2="262.7826086956522" y2="87" stroke="rgba(63,224,255,0.15)" stroke-width="1" /><line x1="282.8695652173913" y1="84" x2="282.8695652173913" y2="87" stroke="rgba(63,224,255,0.15)" stroke-width="1" /><line x1="302.95652173913044" y1="84" x2="302.95652173913044" y2="87" stroke="rgba(63,224,255,0.15)" stroke-width="1" /><line x1="323.04347826086956" y1="84" x2="323.04347826086956" y2="90" stroke="rgba(63,224,255,0.15)" stroke-width="1" /><line x1="343.1304347826087" y1="84" x2="343.1304347826087" y2="87" stroke="rgba(63,224,255,0.15)" stroke-width="1" /><line x1="363.2173913043478" y1="84" x2="363.2173913043478" y2="87" stroke="rgba(63,224,255,0.15)" stroke-width="1" /><line x1="383.30434782608694" y1="84" x2="383.30434782608694" y2="87" stroke="rgba(63,224,255,0.15)" stroke-width="1" /><line x1="403.39130434782606" y1="84" x2="403.39130434782606" y2="90" stroke="rgba(63,224,255,0.15)" stroke-width="1" /><line x1="423.4782608695652" y1="84" x2="423.4782608695652" y2="87" stroke="rgba(63,224,255,0.15)" stroke-width="1" /><line x1="443.5652173913044" y1="84" x2="443.5652173913044" y2="87" stroke="rgba(63,224,255,0.15)" stroke-width="1" /><line x1="463.6521739130435" y1="84" x2="463.6521739130435" y2="87" stroke="rgba(63,224,255,0.15)" stroke-width="1" /><line x1="483.7391304347826" y1="84" x2="483.7391304347826" y2="90" stroke="rgba(63,224,255,0.15)" stroke-width="1" /><line x1="503.82608695652175" y1="84" x2="503.82608695652175" y2="87" stroke="rgba(63,224,255,0.15)" stroke-width="1" /><line x1="523.9130434782609" y1="84" x2="523.9130434782609" y2="87" stroke="rgba(63,224,255,0.15)" stroke-width="1" /><line x1="544" y1="84" x2="544" y2="87" stroke="rgba(63,224,255,0.15)" stroke-width="1" /><line x1="300" y1="36" x2="300" y2="30" stroke="#3FE0FF" stroke-width="1" /><line x1="316" y1="36" x2="316" y2="30" stroke="#3FE0FF" stroke-width="1" /><line x1="300" y1="30" x2="316" y2="30" stroke="#3FE0FF" stroke-width="1" /><path d="M560,46 L576,46 L576,70 L560,70" fill="none" stroke="#3FE0FF" stroke-width="2" /><line x1="580" y1="52" x2="580" y2="64" stroke="#3FE0FF" stroke-width="2" /><line x1="79" y1="36" x2="95" y2="36" stroke="#3FE0FF" stroke-width="2.4" /><line x1="79" y1="36" x2="79" y2="52" stroke="#3FE0FF" stroke-width="2.4" /><line x1="547" y1="36" x2="531" y2="36" stroke="#3FE0FF" stroke-width="2.4" /><line x1="547" y1="36" x2="547" y2="52" stroke="#3FE0FF" stroke-width="2.4" /><line x1="79" y1="80" x2="95" y2="80" stroke="#3FE0FF" stroke-width="2.4" /><line x1="79" y1="80" x2="79" y2="64" stroke="#3FE0FF" stroke-width="2.4" /><line x1="547" y1="80" x2="531" y2="80" stroke="#3FE0FF" stroke-width="2.4" /><line x1="547" y1="80" x2="547" y2="64" stroke="#3FE0FF" stroke-width="2.4" /></g>
</svg>