<svg xmlns="http://www.w3.org/2000/svg" viewBox="0 0 400 260" width="400" height="260">
  <defs>
    <filter id="glow-enemy" x="-40%" y="-40%" width="180%" height="180%">
      <feGaussianBlur stdDeviation="1.3" result="b"/>
      <feMerge><feMergeNode in="b"/><feMergeNode in="SourceGraphic"/></feMerge>
    </filter>
  </defs>
  <g filter="url(#glow-enemy)" stroke-linecap="square" stroke-linejoin="miter" fill="none"><rect x="30" y="40" width="340" height="192" fill="none" stroke="rgba(63,224,255,0.15)" stroke-width="1" stroke-dasharray="2 7"/><line x1="30" y1="40" x2="66" y2="40" stroke="#3FE0FF" stroke-width="2.6" /><line x1="30" y1="40" x2="30" y2="76" stroke="#3FE0FF" stroke-width="2.6" /><line x1="38" y1="48" x2="60" y2="48" stroke="rgba(63,224,255,0.34)" stroke-width="1.4" /><line x1="38" y1="48" x2="38" y2="70" stroke="rgba(63,224,255,0.34)" stroke-width="1.4" /><line x1="370" y1="40" x2="334" y2="40" stroke="#3FE0FF" stroke-width="2.6" /><line x1="370" y1="40" x2="370" y2="76" stroke="#3FE0FF" stroke-width="2.6" /><line x1="362" y1="48" x2="340" y2="48" stroke="rgba(63,224,255,0.34)" stroke-width="1.4" /><line x1="362" y1="48" x2="362" y2="70" stroke="rgba(63,224,255,0.34)" stroke-width="1.4" /><line x1="30" y1="232" x2="66" y2="232" stroke="#3FE0FF" stroke-width="2.6" /><line x1="30" y1="232" x2="30" y2="196" stroke="#3FE0FF" stroke-width="2.6" /><line x1="38" y1="224" x2="60" y2="224" stroke="rgba(63,224,255,0.34)" stroke-width="1.4" /><line x1="38" y1="224" x2="38" y2="202" stroke="rgba(63,224,255,0.34)" stroke-width="1.4" /><line x1="370" y1="232" x2="334" y2="232" stroke="#3FE0FF" stroke-width="2.6" /><line x1="370" y1="232" x2="370" y2="196" stroke="#3FE0FF" stroke-width="2.6" /><line x1="362" y1="224" x2="340" y2="224" stroke="rgba(63,224,255,0.34)" stroke-width="1.4" /><line x1="362" y1="224" x2="362" y2="202" stroke="rgba(63,224,255,0.34)" stroke-width="1.4" /><path d="M184,40 L200,56 L216,40" fill="none" stroke="#3FE0FF" stroke-width="2" /><path d="M190,40 L200,50 L210,40" fill="none" stroke="rgba(63,224,255,0.34)" stroke-width="1" /><path d="M35,20 L89,20 L94,25 L94,35 L89,40 L35,40 L30,35 L30,25 Z" fill="none" stroke="#3FE0FF" stroke-width="1.6" /><line x1="38" y1="30" x2="70" y2="30" stroke="rgba(63,224,255,0.34)" stroke-width="1" /><line x1="80" y1="231" x2="80" y2="224" stroke="rgba(63,224,255,0.34)" stroke-width="1" /><line x1="93.33333333333333" y1="231" x2="93.33333333333333" y2="228" stroke="rgba(63,224,255,0.34)" stroke-width="1" /><line x1="106.66666666666667" y1="231" x2="106.66666666666667" y2="228" stroke="rgba(63,224,255,0.34)" stroke-width="1" /><line x1="120" y1="231" x2="120" y2="228" stroke="rgba(63,224,255,0.34)" stroke-width="1" /><line x1="133.33333333333334" y1="231" x2="133.33333333333334" y2="224" stroke="rgba(63,224,255,0.34)" stroke-width="1" /><line x1="146.66666666666669" y1="231" x2="146.66666666666669" y2="228" stroke="rgba(63,224,255,0.34)" stroke-width="1" /><line x1="160" y1="231" x2="160" y2="228" stroke="rgba(63,224,255,0.34)" stroke-width="1" /><line x1="173.33333333333331" y1="231" x2="173.33333333333331" y2="228" stroke="rgba(63,224,255,0.34)" stroke-width="1" /><line x1="186.66666666666669" y1="231" x2="186.66666666666669" y2="224" stroke="rgba(63,224,255,0.34)" stroke-width="1" /><line x1="200" y1="231" x2="200" y2="228" stroke="rgba(63,224,255,0.34)" stroke-width="1" /><line x1="213.33333333333334" y1="231" x2="213.33333333333334" y2="228" stroke="rgba(63,224,255,0.34)" stroke-width="1" /><line x1="226.66666666666666" y1="231" x2="226.66666666666666" y2="228" stroke="rgba(63,224,255,0.34)" stroke-width="1" /><line x1="240" y1="231" x2="240" y2="224" stroke="rgba(63,224,255,0.34)" stroke-width="1" /><line x1="253.33333333333334" y1="231" x2="253.33333333333334" y2="228" stroke="rgba(63,224,255,0.34)" stroke-width="1" /><line x1="266.66666666666663" y1="231" x2="266.66666666666663" y2="228" stroke="rgba(63,224,255,0.34)" stroke-width="1" /><line x1="280" y1="231" x2="280" y2="228" stroke="rgba(63,224,255,0.34)" stroke-width="1" /><line x1="293.33333333333337" y1="231" x2="293.33333333333337" y2="224" stroke="rgba(63,224,255,0.34)" stroke-width="1" /><line x1="306.66666666666663" y1="231" x2="306.66666666666663" y2="228" stroke="rgba(63,224,255,0.34)" stroke-width="1" /><line x1="320" y1="231" x2="320" y2="228" stroke="rgba(63,224,255,0.34)" stroke-width="1" /><line x1="31" y1="90" x2="37" y2="90" stroke="rgba(63,224,255,0.34)" stroke-width="1" /><line x1="31" y1="99.2" x2="34" y2="99.2" stroke="rgba(63,224,255,0.34)" stroke-width="1" /><line x1="31" y1="108.4" x2="34" y2="108.4" stroke="rgba(63,224,255,0.34)" stroke-width="1" /><line x1="31" y1="117.6" x2="37" y2="117.6" stroke="rgba(63,224,255,0.34)" stroke-width="1" /><line x1="31" y1="126.8" x2="34" y2="126.8" stroke="rgba(63,224,255,0.34)" stroke-width="1" /><line x1="31" y1="136" x2="34" y2="136" stroke="rgba(63,224,255,0.34)" stroke-width="1" /><line x1="31" y1="145.2" x2="37" y2="145.2" stroke="rgba(63,224,255,0.34)" stroke-width="1" /><line x1="31" y1="154.4" x2="34" y2="154.4" stroke="rgba(63,224,255,0.34)" stroke-width="1" /><line x1="31" y1="163.6" x2="34" y2="163.6" stroke="rgba(63,224,255,0.34)" stroke-width="1" /><line x1="31" y1="172.8" x2="37" y2="172.8" stroke="rgba(63,224,255,0.34)" stroke-width="1" /><line x1="31" y1="182" x2="34" y2="182" stroke="rgba(63,224,255,0.34)" stroke-width="1" /></g>
</svg>