<svg xmlns="http://www.w3.org/2000/svg" viewBox="0 0 150 150" width="150" height="150">
  <defs>
    <filter id="glow-keycap" x="-40%" y="-40%" width="180%" height="180%">
      <feGaussianBlur stdDeviation="1.3" result="b"/>
      <feMerge><feMergeNode in="b"/><feMergeNode in="SourceGraphic"/></feMerge>
    </filter>
  </defs>
  <g filter="url(#glow-keycap)" stroke-linecap="square" stroke-linejoin="miter" fill="none"><path d="M44,30 L106,30 L122,46 L122,108 L106,124 L44,124 L28,108 L28,46 Z" fill="none" stroke="rgba(63,224,255,0.34)" stroke-width="2" /><path d="M44,22 L106,22 L122,38 L122,100 L106,116 L44,116 L28,100 L28,38 Z" fill="rgba(63,224,255,0.15)" stroke="#3FE0FF" stroke-width="2.6" /><path d="M50,32 L100,32 L110,42 L110,90 L100,100 L50,100 L40,90 L40,42 Z" fill="none" stroke="rgba(63,224,255,0.34)" stroke-width="1.2" /><line x1="50" y1="38" x2="100" y2="38" stroke="#3FE0FF" stroke-width="1.4" /><line x1="44" y1="30" x2="52" y2="30" stroke="#3FE0FF" stroke-width="1.4" /><line x1="106" y1="30" x2="98" y2="30" stroke="#3FE0FF" stroke-width="1.4" /><line x1="44" y1="108" x2="52" y2="108" stroke="#3FE0FF" stroke-width="1.4" /><line x1="106" y1="108" x2="98" y2="108" stroke="#3FE0FF" stroke-width="1.4" /></g>
</svg>