<svg xmlns="http://www.w3.org/2000/svg" viewBox="0 0 260 260" width="260" height="260">
  <defs>
    <filter id="glow-minimap" x="-40%" y="-40%" width="180%" height="180%">
      <feGaussianBlur stdDeviation="1.3" result="b"/>
      <feMerge><feMergeNode in="b"/><feMergeNode in="SourceGraphic"/></feMerge>
    </filter>
  </defs>
  <g filter="url(#glow-minimap)" stroke-linecap="square" stroke-linejoin="miter" fill="none"><path d="M60,26 L200,26 L234,60 L234,200 L200,234 L60,234 L26,200 L26,60 Z" fill="rgba(63,224,255,0.15)" stroke="#3FE0FF" stroke-width="2" /><path d="M64,38 L196,38 L222,64 L222,196 L196,222 L64,222 L38,196 L38,64 Z" fill="none" stroke="rgba(63,224,255,0.34)" stroke-width="1" /><line x1="130" y1="40" x2="130" y2="220" stroke="rgba(63,224,255,0.15)" stroke-width="1" /><line x1="40" y1="130" x2="220" y2="130" stroke="rgba(63,224,255,0.15)" stroke-width="1" /><circle cx="130" cy="130" r="44" fill="none" stroke="rgba(63,224,255,0.15)" stroke-width="1"/><polygon points="130,130 100,46 160,46" fill="rgba(63,224,255,0.10)" stroke="none" stroke-width="2"/><line x1="130" y1="130" x2="130" y2="44" stroke="rgba(63,224,255,0.34)" stroke-width="1" /><polygon points="130,121 137,137 130,133 123,137" fill="#3FE0FF" stroke="none" stroke-width="2"/><polygon points="124,22 136,22 130,12" fill="#3FE0FF" stroke="none" stroke-width="2"/><line x1="60" y1="27" x2="60" y2="33" stroke="rgba(63,224,255,0.34)" stroke-width="1" /><line x1="71.66666666666667" y1="27" x2="71.66666666666667" y2="30" stroke="rgba(63,224,255,0.34)" stroke-width="1" /><line x1="83.33333333333333" y1="27" x2="83.33333333333333" y2="30" stroke="rgba(63,224,255,0.34)" stroke-width="1" /><line x1="95" y1="27" x2="95" y2="33" stroke="rgba(63,224,255,0.34)" stroke-width="1" /><line x1="106.66666666666666" y1="27" x2="106.66666666666666" y2="30" stroke="rgba(63,224,255,0.34)" stroke-width="1" /><line x1="118.33333333333334" y1="27" x2="118.33333333333334" y2="30" stroke="rgba(63,224,255,0.34)" stroke-width="1" /><line x1="130" y1="27" x2="130" y2="33" stroke="rgba(63,224,255,0.34)" stroke-width="1" /><line x1="141.66666666666669" y1="27" x2="141.66666666666669" y2="30" stroke="rgba(63,224,255,0.34)" stroke-width="1" /><line x1="153.33333333333331" y1="27" x2="153.33333333333331" y2="30" stroke="rgba(63,224,255,0.34)" stroke-width="1" /><line x1="165" y1="27" x2="165" y2="33" stroke="rgba(63,224,255,0.34)" stroke-width="1" /><line x1="176.66666666666669" y1="27" x2="176.66666666666669" y2="30" stroke="rgba(63,224,255,0.34)" stroke-width="1" /><line x1="188.33333333333334" y1="27" x2="188.33333333333334" y2="30" stroke="rgba(63,224,255,0.34)" stroke-width="1" /><line x1="200" y1="27" x2="200" y2="33" stroke="rgba(63,224,255,0.34)" stroke-width="1" /><line x1="60" y1="233" x2="60" y2="227" stroke="rgba(63,224,255,0.34)" stroke-width="1" /><line x1="71.66666666666667" y1="233" x2="71.66666666666667" y2="230" stroke="rgba(63,224,255,0.34)" stroke-width="1" /><line x1="83.33333333333333" y1="233" x2="83.33333333333333" y2="230" stroke="rgba(63,224,255,0.34)" stroke-width="1" /><line x1="95" y1="233" x2="95" y2="227" stroke="rgba(63,224,255,0.34)" stroke-width="1" /><line x1="106.66666666666666" y1="233" x2="106.66666666666666" y2="230" stroke="rgba(63,224,255,0.34)" stroke-width="1" /><line x1="118.33333333333334" y1="233" x2="118.33333333333334" y2="230" stroke="rgba(63,224,255,0.34)" stroke-width="1" /><line x1="130" y1="233" x2="130" y2="227" stroke="rgba(63,224,255,0.34)" stroke-width="1" /><line x1="141.66666666666669" y1="233" x2="141.66666666666669" y2="230" stroke="rgba(63,224,255,0.34)" stroke-width="1" /><line x1="153.33333333333331" y1="233" x2="153.33333333333331" y2="230" stroke="rgba(63,224,255,0.34)" stroke-width="1" /><line x1="165" y1="233" x2="165" y2="227" stroke="rgba(63,224,255,0.34)" stroke-width="1" /><line x1="176.66666666666669" y1="233" x2="176.66666666666669" y2="230" stroke="rgba(63,224,255,0.34)" stroke-width="1" /><line x1="188.33333333333334" y1="233" x2="188.33333333333334" y2="230" stroke="rgba(63,224,255,0.34)" stroke-width="1" /><line x1="200" y1="233" x2="200" y2="227" stroke="rgba(63,224,255,0.34)" stroke-width="1" /><line x1="27" y1="60" x2="33" y2="60" stroke="rgba(63,224,255,0.34)" stroke-width="1" /><line x1="27" y1="71.66666666666667" x2="30" y2="71.66666666666667" stroke="rgba(63,224,255,0.34)" stroke-width="1" /><line x1="27" y1="83.33333333333333" x2="30" y2="83.33333333333333" stroke="rgba(63,224,255,0.34)" stroke-width="1" /><line x1="27" y1="95" x2="33" y2="95" stroke="rgba(63,224,255,0.34)" stroke-width="1" /><line x1="27" y1="106.66666666666666" x2="30" y2="106.66666666666666" stroke="rgba(63,224,255,0.34)" stroke-width="1" /><line x1="27" y1="118.33333333333334" x2="30" y2="118.33333333333334" stroke="rgba(63,224,255,0.34)" stroke-width="1" /><line x1="27" y1="130" x2="33" y2="130" stroke="rgba(63,224,255,0.34)" stroke-width="1" /><line x1="27" y1="141.66666666666669" x2="30" y2="141.66666666666669" stroke="rgba(63,224,255,0.34)" stroke-width="1" /><line x1="27" y1="153.33333333333331" x2="30" y2="153.33333333333331" stroke="rgba(63,224,255,0.34)" stroke-width="1" /><line x1="27" y1="165" x2="33" y2="165" stroke="rgba(63,224,255,0.34)" stroke-width="1" /><line x1="27" y1="176.66666666666669" x2="30" y2="176.66666666666669" stroke="rgba(63,224,255,0.34)" stroke-width="1" /><line x1="27" y1="188.33333333333334" x2="30" y2="188.33333333333334" stroke="rgba(63,224,255,0.34)" stroke-width="1" /><line x1="27" y1="200" x2="33" y2="200" stroke="rgba(63,224,255,0.34)" stroke-width="1" /><line x1="233" y1="60" x2="227" y2="60" stroke="rgba(63,224,255,0.34)" stroke-width="1" /><line x1="233" y1="71.66666666666667" x2="230" y2="71.66666666666667" stroke="rgba(63,224,255,0.34)" stroke-width="1" /><line x1="233" y1="83.33333333333333" x2="230" y2="83.33333333333333" stroke="rgba(63,224,255,0.34)" stroke-width="1" /><line x1="233" y1="95" x2="227" y2="95" stroke="rgba(63,224,255,0.34)" stroke-width="1" /><line x1="233" y1="106.66666666666666" x2="230" y2="106.66666666666666" stroke="rgba(63,224,255,0.34)" stroke-width="1" /><line x1="233" y1="118.33333333333334" x2="230" y2="118.33333333333334" stroke="rgba(63,224,255,0.34)" stroke-width="1" /><line x1="233" y1="130" x2="227" y2="130" stroke="rgba(63,224,255,0.34)" stroke-width="1" /><line x1="233" y1="141.66666666666669" x2="230" y2="141.66666666666669" stroke="rgba(63,224,255,0.34)" stroke-width="1" /><line x1="233" y1="153.33333333333331" x2="230" y2="153.33333333333331" stroke="rgba(63,224,255,0.34)" stroke-width="1" /><line x1="233" y1="165" x2="227" y2="165" stroke="rgba(63,224,255,0.34)" stroke-width="1" /><line x1="233" y1="176.66666666666669" x2="230" y2="176.66666666666669" stroke="rgba(63,224,255,0.34)" stroke-width="1" /><line x1="233" y1="188.33333333333334" x2="230" y2="188.33333333333334" stroke="rgba(63,224,255,0.34)" stroke-width="1" /><line x1="233" y1="200" x2="227" y2="200" stroke="rgba(63,224,255,0.34)" stroke-width="1" /><line x1="26" y1="60" x2="36" y2="50" stroke="#3FE0FF" stroke-width="2" /><line x1="234" y1="60" x2="224" y2="50" stroke="#3FE0FF" stroke-width="2" /><line x1="26" y1="200" x2="36" y2="210" stroke="#3FE0FF" stroke-width="2" /><line x1="234" y1="200" x2="224" y2="210" stroke="#3FE0FF" stroke-width="2" /></g>
</svg>