<svg xmlns="http://www.w3.org/2000/svg" viewBox="0 0 220 220" width="220" height="220">
  <defs>
    <filter id="glow-reticle" x="-40%" y="-40%" width="180%" height="180%">
      <feGaussianBlur stdDeviation="1.3" result="b"/>
      <feMerge><feMergeNode in="b"/><feMergeNode in="SourceGraphic"/></feMerge>
    </filter>
  </defs>
  <g filter="url(#glow-reticle)" stroke-linecap="square" stroke-linejoin="miter" fill="none"><g transform="rotate(0 110 110)"><line x1="94" y1="76" x2="126" y2="76" stroke="#3FE0FF" stroke-width="2" /><line x1="94" y1="76" x2="94" y2="84" stroke="#3FE0FF" stroke-width="2" /><line x1="126" y1="76" x2="126" y2="84" stroke="#3FE0FF" stroke-width="2" /><line x1="88" y1="66" x2="132" y2="66" stroke="rgba(63,224,255,0.34)" stroke-width="1" /><line x1="106" y1="86" x2="106" y2="91" stroke="rgba(63,224,255,0.15)" stroke-width="1" /><line x1="114" y1="86" x2="114" y2="91" stroke="rgba(63,224,255,0.15)" stroke-width="1" /></g><g transform="rotate(90 110 110)"><line x1="94" y1="76" x2="126" y2="76" stroke="#3FE0FF" stroke-width="2" /><line x1="94" y1="76" x2="94" y2="84" stroke="#3FE0FF" stroke-width="2" /><line x1="126" y1="76" x2="126" y2="84" stroke="#3FE0FF" stroke-width="2" /><line x1="88" y1="66" x2="132" y2="66" stroke="rgba(63,224,255,0.34)" stroke-width="1" /><line x1="106" y1="86" x2="106" y2="91" stroke="rgba(63,224,255,0.15)" stroke-width="1" /><line x1="114" y1="86" x2="114" y2="91" stroke="rgba(63,224,255,0.15)" stroke-width="1" /></g><g transform="rotate(180 110 110)"><line x1="94" y1="76" x2="126" y2="76" stroke="#3FE0FF" stroke-width="2" /><line x1="94" y1="76" x2="94" y2="84" stroke="#3FE0FF" stroke-width="2" /><line x1="126" y1="76" x2="126" y2="84" stroke="#3FE0FF" stroke-width="2" /><line x1="88" y1="66" x2="132" y2="66" stroke="rgba(63,224,255,0.34)" stroke-width="1" /><line x1="106" y1="86" x2="106" y2="91" stroke="rgba(63,224,255,0.15)" stroke-width="1" /><line x1="114" y1="86" x2="114" y2="91" stroke="rgba(63,224,255,0.15)" stroke-width="1" /></g><g transform="rotate(270 110 110)"><line x1="94" y1="76" x2="126" y2="76" stroke="#3FE0FF" stroke-width="2" /><line x1="94" y1="76" x2="94" y2="84" stroke="#3FE0FF" stroke-width="2" /><line x1="126" y1="76" x2="126" y2="84" stroke="#3FE0FF" stroke-width="2" /><line x1="88" y1="66" x2="132" y2="66" stroke="rgba(63,224,255,0.34)" stroke-width="1" /><line x1="106" y1="86" x2="106" y2="91" stroke="rgba(63,224,255,0.15)" stroke-width="1" /><line x1="114" y1="86" x2="114" y2="91" stroke="rgba(63,224,255,0.15)" stroke-width="1" /></g><g transform="rotate(45 110 110)"><line x1="110" y1="80" x2="110" y2="86" stroke="rgba(63,224,255,0.15)" stroke-width="1" /></g><g transform="rotate(135 110 110)"><line x1="110" y1="80" x2="110" y2="86" stroke="rgba(63,224,255,0.15)" stroke-width="1" /></g><g transform="rotate(225 110 110)"><line x1="110" y1="80" x2="110" y2="86" stroke="rgba(63,224,255,0.15)" stroke-width="1" /></g><g transform="rotate(315 110 110)"><line x1="110" y1="80" x2="110" y2="86" stroke="rgba(63,224,255,0.15)" stroke-width="1" /></g><circle cx="110" cy="110" r="6" fill="none" stroke="#3FE0FF" stroke-width="1.2"/><circle cx="110" cy="110" r="2.6" fill="#3FE0FF" stroke="none" stroke-width="2"/></g>
</svg>